<svg xmlns="http://www.w3.org/2000/svg" xmlns:xlink="http://www.w3.org/1999/xlink" width="414.641" height="479.324" viewBox="0 0 414.641 479.324">
  <defs>
    <linearGradient id="linear-gradient-coub-3" x1="0.976" y1="0.039" x2="-0.035" y2="0.771" gradientUnits="objectBoundingBox">
      <stop offset="0" stop-color="#099"/>
      <stop offset="1" stop-color="#d8006b"/>
    </linearGradient>
  </defs>
  <g id="Group_91" data-name="Group 91" transform="translate(-793 -142.333)">
    <g data-name="Group 52" transform="translate(2 3)">
      <path class="cube-hero" id="Path_187-1" data-name="Path 187" d="M965.222,1020.357l.086-.042-.152-81.933c0-.006.006-.009.007-.015a.106.106,0,0,1,.027-.06s0-.01.007-.014.008,0,.012,0,.007-.01.014-.013l57.587-28a.11.11,0,0,1,.036-.005c.006,0,.009-.007.015-.007s0,0,.007,0,.007,0,.011,0l74.128,11.674c.005,0,.009.005.014.007a.1.1,0,0,1,.03.009c.005,0,.008.008.012.012a.109.109,0,0,1,.015.016.111.111,0,0,1,.021.041s.006.008.007.013,0,.005,0,.008,0,.006,0,.01l.153,82.08a.117.117,0,0,1-.066.105l-57.588,28a.117.117,0,0,1-.051.012h-.018l-.079-.012,0,0a.116.116,0,0,1-.051.012h-.018l-74.128-11.674a.118.118,0,0,1-.1-.1A.116.116,0,0,1,965.222,1020.357Zm74.2,11.64.016-.007-.068-36.812-16.489-2.6L965.7,1020.387Zm-16.677-121.43L965.66,938.325l57.083,8.99Zm.234,81.793,16.389,2.581-.083-44.784-16.306-2.568Zm73.624,11.832-57-8.976.068,36.661Zm.27-81.95-57.354,27.889.083,44.848,57.405,9.04c.006,0,.011.007.017.009Zm-74.129,70.146V947.552l-57.353-9.032.152,81.682Zm.234-81.87v36.835l16.405,2.583,1.475-.717,55.744-27.107Z" transform="translate(-174.156 -770.93)" fill="none" stroke="url(#linear-gradient-coub-3)"/>
      <path class="cube-hero" id="Path_191-1" data-name="Path 191" d="M965.222,1020.357l.086-.042-.152-81.933c0-.006.006-.009.007-.015a.106.106,0,0,1,.027-.06s0-.01.007-.014.008,0,.012,0,.007-.01.014-.013l57.587-28a.11.11,0,0,1,.036-.005c.006,0,.009-.007.015-.007s0,0,.007,0,.007,0,.011,0l74.128,11.674c.005,0,.009.005.014.007a.1.1,0,0,1,.03.009c.005,0,.008.008.012.012a.109.109,0,0,1,.015.016.111.111,0,0,1,.021.041s.006.008.007.013,0,.005,0,.008,0,.006,0,.01l.153,82.08a.117.117,0,0,1-.066.105l-57.588,28a.117.117,0,0,1-.051.012h-.018l-.079-.012,0,0a.116.116,0,0,1-.051.012h-.018l-74.128-11.674a.118.118,0,0,1-.1-.1A.116.116,0,0,1,965.222,1020.357Zm74.2,11.64.016-.007-.068-36.812-16.489-2.6L965.7,1020.387Zm-16.677-121.43L965.66,938.325l57.083,8.99Zm.234,81.793,16.389,2.581-.083-44.784-16.306-2.568Zm73.624,11.832-57-8.976.068,36.661Zm.27-81.95-57.354,27.889.083,44.848,57.405,9.04c.006,0,.011.007.017.009Zm-74.129,70.146V947.552l-57.353-9.032.152,81.682Zm.234-81.87v36.835l16.405,2.583,1.475-.717,55.744-27.107Z" transform="translate(-174.156 -668.705)" fill="none" stroke="url(#linear-gradient-coub-3)"/>
      <path class="cube-hero" id="Path_192-1" data-name="Path 192" d="M965.222,1020.357l.086-.042-.152-81.933c0-.006.006-.009.007-.015a.106.106,0,0,1,.027-.06s0-.01.007-.014.008,0,.012,0,.007-.01.014-.013l57.587-28a.11.11,0,0,1,.036-.005c.006,0,.009-.007.015-.007s0,0,.007,0,.007,0,.011,0l74.128,11.674c.005,0,.009.005.014.007a.1.1,0,0,1,.03.009c.005,0,.008.008.012.012a.109.109,0,0,1,.015.016.111.111,0,0,1,.021.041s.006.008.007.013,0,.005,0,.008,0,.006,0,.01l.153,82.08a.117.117,0,0,1-.066.105l-57.588,28a.117.117,0,0,1-.051.012h-.018l-.079-.012,0,0a.116.116,0,0,1-.051.012h-.018l-74.128-11.674a.118.118,0,0,1-.1-.1A.116.116,0,0,1,965.222,1020.357Zm74.2,11.64.016-.007-.068-36.812-16.489-2.6L965.7,1020.387Zm-16.677-121.43L965.66,938.325l57.083,8.99Zm.234,81.793,16.389,2.581-.083-44.784-16.306-2.568Zm73.624,11.832-57-8.976.068,36.661Zm.27-81.95-57.354,27.889.083,44.848,57.405,9.04c.006,0,.011.007.017.009Zm-74.129,70.146V947.552l-57.353-9.032.152,81.682Zm.234-81.87v36.835l16.405,2.583,1.475-.717,55.744-27.107Z" transform="translate(-78.618 -751.823)" fill="none" stroke="url(#linear-gradient-coub-3)"/>
      <path class="cube-hero" id="Path_193-1" data-name="Path 193" d="M965.222,1020.357l.086-.042-.152-81.933c0-.006.006-.009.007-.015a.106.106,0,0,1,.027-.06s0-.01.007-.014.008,0,.012,0,.007-.01.014-.013l57.587-28a.11.11,0,0,1,.036-.005c.006,0,.009-.007.015-.007s0,0,.007,0,.007,0,.011,0l74.128,11.674c.005,0,.009.005.014.007a.1.1,0,0,1,.03.009c.005,0,.008.008.012.012a.109.109,0,0,1,.015.016.111.111,0,0,1,.021.041s.006.008.007.013,0,.005,0,.008,0,.006,0,.01l.153,82.08a.117.117,0,0,1-.066.105l-57.588,28a.117.117,0,0,1-.051.012h-.018l-.079-.012,0,0a.116.116,0,0,1-.051.012h-.018l-74.128-11.674a.118.118,0,0,1-.1-.1A.116.116,0,0,1,965.222,1020.357Zm74.2,11.64.016-.007-.068-36.812-16.489-2.6L965.7,1020.387Zm-16.677-121.43L965.66,938.325l57.083,8.99Zm.234,81.793,16.389,2.581-.083-44.784-16.306-2.568Zm73.624,11.832-57-8.976.068,36.661Zm.27-81.95-57.354,27.889.083,44.848,57.405,9.04c.006,0,.011.007.017.009Zm-74.129,70.146V947.552l-57.353-9.032.152,81.682Zm.234-81.87v36.835l16.405,2.583,1.475-.717,55.744-27.107Z" transform="translate(-78.618 -649.597)" fill="none" stroke="url(#linear-gradient-coub-3)"/>
    </g>
    <g data-name="Group 88" transform="translate(2 203)">
      <path class="cube-hero" id="Path_187-2" data-name="Path 187" d="M965.222,1020.357l.086-.042-.152-81.933c0-.006.006-.009.007-.015a.106.106,0,0,1,.027-.06s0-.01.007-.014.008,0,.012,0,.007-.01.014-.013l57.587-28a.11.11,0,0,1,.036-.005c.006,0,.009-.007.015-.007s0,0,.007,0,.007,0,.011,0l74.128,11.674c.005,0,.009.005.014.007a.1.1,0,0,1,.03.009c.005,0,.008.008.012.012a.109.109,0,0,1,.015.016.111.111,0,0,1,.021.041s.006.008.007.013,0,.005,0,.008,0,.006,0,.01l.153,82.08a.117.117,0,0,1-.066.105l-57.588,28a.117.117,0,0,1-.051.012h-.018l-.079-.012,0,0a.116.116,0,0,1-.051.012h-.018l-74.128-11.674a.118.118,0,0,1-.1-.1A.116.116,0,0,1,965.222,1020.357Zm74.2,11.64.016-.007-.068-36.812-16.489-2.6L965.7,1020.387Zm-16.677-121.43L965.66,938.325l57.083,8.99Zm.234,81.793,16.389,2.581-.083-44.784-16.306-2.568Zm73.624,11.832-57-8.976.068,36.661Zm.27-81.95-57.354,27.889.083,44.848,57.405,9.04c.006,0,.011.007.017.009Zm-74.129,70.146V947.552l-57.353-9.032.152,81.682Zm.234-81.87v36.835l16.405,2.583,1.475-.717,55.744-27.107Z" transform="translate(-174.156 -770.93)" fill="none" stroke="url(#linear-gradient-coub-3)"/>
      <path class="cube-hero" id="Path_191-2" data-name="Path 191" d="M965.222,1020.357l.086-.042-.152-81.933c0-.006.006-.009.007-.015a.106.106,0,0,1,.027-.06s0-.01.007-.014.008,0,.012,0,.007-.01.014-.013l57.587-28a.11.11,0,0,1,.036-.005c.006,0,.009-.007.015-.007s0,0,.007,0,.007,0,.011,0l74.128,11.674c.005,0,.009.005.014.007a.1.1,0,0,1,.03.009c.005,0,.008.008.012.012a.109.109,0,0,1,.015.016.111.111,0,0,1,.021.041s.006.008.007.013,0,.005,0,.008,0,.006,0,.01l.153,82.08a.117.117,0,0,1-.066.105l-57.588,28a.117.117,0,0,1-.051.012h-.018l-.079-.012,0,0a.116.116,0,0,1-.051.012h-.018l-74.128-11.674a.118.118,0,0,1-.1-.1A.116.116,0,0,1,965.222,1020.357Zm74.2,11.64.016-.007-.068-36.812-16.489-2.6L965.7,1020.387Zm-16.677-121.43L965.66,938.325l57.083,8.99Zm.234,81.793,16.389,2.581-.083-44.784-16.306-2.568Zm73.624,11.832-57-8.976.068,36.661Zm.27-81.95-57.354,27.889.083,44.848,57.405,9.04c.006,0,.011.007.017.009Zm-74.129,70.146V947.552l-57.353-9.032.152,81.682Zm.234-81.87v36.835l16.405,2.583,1.475-.717,55.744-27.107Z" transform="translate(-174.156 -668.705)" fill="none" stroke="url(#linear-gradient-coub-3)"/>
      <path class="cube-hero" id="Path_192-2" data-name="Path 192" d="M965.222,1020.357l.086-.042-.152-81.933c0-.006.006-.009.007-.015a.106.106,0,0,1,.027-.06s0-.01.007-.014.008,0,.012,0,.007-.01.014-.013l57.587-28a.11.11,0,0,1,.036-.005c.006,0,.009-.007.015-.007s0,0,.007,0,.007,0,.011,0l74.128,11.674c.005,0,.009.005.014.007a.1.1,0,0,1,.03.009c.005,0,.008.008.012.012a.109.109,0,0,1,.015.016.111.111,0,0,1,.021.041s.006.008.007.013,0,.005,0,.008,0,.006,0,.01l.153,82.08a.117.117,0,0,1-.066.105l-57.588,28a.117.117,0,0,1-.051.012h-.018l-.079-.012,0,0a.116.116,0,0,1-.051.012h-.018l-74.128-11.674a.118.118,0,0,1-.1-.1A.116.116,0,0,1,965.222,1020.357Zm74.2,11.64.016-.007-.068-36.812-16.489-2.6L965.7,1020.387Zm-16.677-121.43L965.66,938.325l57.083,8.99Zm.234,81.793,16.389,2.581-.083-44.784-16.306-2.568Zm73.624,11.832-57-8.976.068,36.661Zm.27-81.95-57.354,27.889.083,44.848,57.405,9.04c.006,0,.011.007.017.009Zm-74.129,70.146V947.552l-57.353-9.032.152,81.682Zm.234-81.87v36.835l16.405,2.583,1.475-.717,55.744-27.107Z" transform="translate(-78.618 -751.823)" fill="none" stroke="url(#linear-gradient-coub-3)"/>
      <path class="cube-hero" id="Path_193-2" data-name="Path 193" d="M965.222,1020.357l.086-.042-.152-81.933c0-.006.006-.009.007-.015a.106.106,0,0,1,.027-.06s0-.01.007-.014.008,0,.012,0,.007-.01.014-.013l57.587-28a.11.11,0,0,1,.036-.005c.006,0,.009-.007.015-.007s0,0,.007,0,.007,0,.011,0l74.128,11.674c.005,0,.009.005.014.007a.1.1,0,0,1,.03.009c.005,0,.008.008.012.012a.109.109,0,0,1,.015.016.111.111,0,0,1,.021.041s.006.008.007.013,0,.005,0,.008,0,.006,0,.01l.153,82.08a.117.117,0,0,1-.066.105l-57.588,28a.117.117,0,0,1-.051.012h-.018l-.079-.012,0,0a.116.116,0,0,1-.051.012h-.018l-74.128-11.674a.118.118,0,0,1-.1-.1A.116.116,0,0,1,965.222,1020.357Zm74.2,11.64.016-.007-.068-36.812-16.489-2.6L965.7,1020.387Zm-16.677-121.43L965.66,938.325l57.083,8.99Zm.234,81.793,16.389,2.581-.083-44.784-16.306-2.568Zm73.624,11.832-57-8.976.068,36.661Zm.27-81.95-57.354,27.889.083,44.848,57.405,9.04c.006,0,.011.007.017.009Zm-74.129,70.146V947.552l-57.353-9.032.152,81.682Zm.234-81.87v36.835l16.405,2.583,1.475-.717,55.744-27.107Z" transform="translate(-78.618 -649.597)" fill="none" stroke="url(#linear-gradient-coub-3)"/>
    </g>
    <g data-name="Group 89" transform="translate(189 39)">
      <path class="cube-hero" id="Path_187-3" data-name="Path 187" d="M965.222,1020.357l.086-.042-.152-81.933c0-.006.006-.009.007-.015a.106.106,0,0,1,.027-.06s0-.01.007-.014.008,0,.012,0,.007-.01.014-.013l57.587-28a.11.11,0,0,1,.036-.005c.006,0,.009-.007.015-.007s0,0,.007,0,.007,0,.011,0l74.128,11.674c.005,0,.009.005.014.007a.1.1,0,0,1,.03.009c.005,0,.008.008.012.012a.109.109,0,0,1,.015.016.111.111,0,0,1,.021.041s.006.008.007.013,0,.005,0,.008,0,.006,0,.01l.153,82.08a.117.117,0,0,1-.066.105l-57.588,28a.117.117,0,0,1-.051.012h-.018l-.079-.012,0,0a.116.116,0,0,1-.051.012h-.018l-74.128-11.674a.118.118,0,0,1-.1-.1A.116.116,0,0,1,965.222,1020.357Zm74.2,11.64.016-.007-.068-36.812-16.489-2.6L965.7,1020.387Zm-16.677-121.43L965.66,938.325l57.083,8.99Zm.234,81.793,16.389,2.581-.083-44.784-16.306-2.568Zm73.624,11.832-57-8.976.068,36.661Zm.27-81.95-57.354,27.889.083,44.848,57.405,9.04c.006,0,.011.007.017.009Zm-74.129,70.146V947.552l-57.353-9.032.152,81.682Zm.234-81.87v36.835l16.405,2.583,1.475-.717,55.744-27.107Z" transform="translate(-174.156 -770.93)" fill="none" stroke="url(#linear-gradient-coub-3)"/>
      <path class="cube-hero" id="Path_191-3" data-name="Path 191" d="M965.222,1020.357l.086-.042-.152-81.933c0-.006.006-.009.007-.015a.106.106,0,0,1,.027-.06s0-.01.007-.014.008,0,.012,0,.007-.01.014-.013l57.587-28a.11.11,0,0,1,.036-.005c.006,0,.009-.007.015-.007s0,0,.007,0,.007,0,.011,0l74.128,11.674c.005,0,.009.005.014.007a.1.1,0,0,1,.03.009c.005,0,.008.008.012.012a.109.109,0,0,1,.015.016.111.111,0,0,1,.021.041s.006.008.007.013,0,.005,0,.008,0,.006,0,.01l.153,82.08a.117.117,0,0,1-.066.105l-57.588,28a.117.117,0,0,1-.051.012h-.018l-.079-.012,0,0a.116.116,0,0,1-.051.012h-.018l-74.128-11.674a.118.118,0,0,1-.1-.1A.116.116,0,0,1,965.222,1020.357Zm74.2,11.64.016-.007-.068-36.812-16.489-2.6L965.7,1020.387Zm-16.677-121.43L965.66,938.325l57.083,8.99Zm.234,81.793,16.389,2.581-.083-44.784-16.306-2.568Zm73.624,11.832-57-8.976.068,36.661Zm.27-81.95-57.354,27.889.083,44.848,57.405,9.04c.006,0,.011.007.017.009Zm-74.129,70.146V947.552l-57.353-9.032.152,81.682Zm.234-81.87v36.835l16.405,2.583,1.475-.717,55.744-27.107Z" transform="translate(-174.156 -668.705)" fill="none" stroke="url(#linear-gradient-coub-3)"/>
      <path class="cube-hero" id="Path_192-3" data-name="Path 192" d="M965.222,1020.357l.086-.042-.152-81.933c0-.006.006-.009.007-.015a.106.106,0,0,1,.027-.06s0-.01.007-.014.008,0,.012,0,.007-.01.014-.013l57.587-28a.11.11,0,0,1,.036-.005c.006,0,.009-.007.015-.007s0,0,.007,0,.007,0,.011,0l74.128,11.674c.005,0,.009.005.014.007a.1.1,0,0,1,.03.009c.005,0,.008.008.012.012a.109.109,0,0,1,.015.016.111.111,0,0,1,.021.041s.006.008.007.013,0,.005,0,.008,0,.006,0,.01l.153,82.08a.117.117,0,0,1-.066.105l-57.588,28a.117.117,0,0,1-.051.012h-.018l-.079-.012,0,0a.116.116,0,0,1-.051.012h-.018l-74.128-11.674a.118.118,0,0,1-.1-.1A.116.116,0,0,1,965.222,1020.357Zm74.2,11.64.016-.007-.068-36.812-16.489-2.6L965.7,1020.387Zm-16.677-121.43L965.66,938.325l57.083,8.99Zm.234,81.793,16.389,2.581-.083-44.784-16.306-2.568Zm73.624,11.832-57-8.976.068,36.661Zm.27-81.95-57.354,27.889.083,44.848,57.405,9.04c.006,0,.011.007.017.009Zm-74.129,70.146V947.552l-57.353-9.032.152,81.682Zm.234-81.87v36.835l16.405,2.583,1.475-.717,55.744-27.107Z" transform="translate(-78.618 -751.823)" fill="none" stroke="url(#linear-gradient-coub-3)"/>
      <path class="cube-hero" id="Path_193-3" data-name="Path 193" d="M965.222,1020.357l.086-.042-.152-81.933c0-.006.006-.009.007-.015a.106.106,0,0,1,.027-.06s0-.01.007-.014.008,0,.012,0,.007-.01.014-.013l57.587-28a.11.11,0,0,1,.036-.005c.006,0,.009-.007.015-.007s0,0,.007,0,.007,0,.011,0l74.128,11.674c.005,0,.009.005.014.007a.1.1,0,0,1,.03.009c.005,0,.008.008.012.012a.109.109,0,0,1,.015.016.111.111,0,0,1,.021.041s.006.008.007.013,0,.005,0,.008,0,.006,0,.01l.153,82.08a.117.117,0,0,1-.066.105l-57.588,28a.117.117,0,0,1-.051.012h-.018l-.079-.012,0,0a.116.116,0,0,1-.051.012h-.018l-74.128-11.674a.118.118,0,0,1-.1-.1A.116.116,0,0,1,965.222,1020.357Zm74.2,11.64.016-.007-.068-36.812-16.489-2.6L965.7,1020.387Zm-16.677-121.43L965.66,938.325l57.083,8.99Zm.234,81.793,16.389,2.581-.083-44.784-16.306-2.568Zm73.624,11.832-57-8.976.068,36.661Zm.27-81.95-57.354,27.889.083,44.848,57.405,9.04c.006,0,.011.007.017.009Zm-74.129,70.146V947.552l-57.353-9.032.152,81.682Zm.234-81.87v36.835l16.405,2.583,1.475-.717,55.744-27.107Z" transform="translate(-78.618 -649.597)" fill="none" stroke="url(#linear-gradient-coub-3)"/>
    </g>
    <g data-name="Group 90" transform="translate(189 239)">
      <path class="cube-hero" id="Path_187-4" data-name="Path 187" d="M965.222,1020.357l.086-.042-.152-81.933c0-.006.006-.009.007-.015a.106.106,0,0,1,.027-.06s0-.01.007-.014.008,0,.012,0,.007-.01.014-.013l57.587-28a.11.11,0,0,1,.036-.005c.006,0,.009-.007.015-.007s0,0,.007,0,.007,0,.011,0l74.128,11.674c.005,0,.009.005.014.007a.1.1,0,0,1,.03.009c.005,0,.008.008.012.012a.109.109,0,0,1,.015.016.111.111,0,0,1,.021.041s.006.008.007.013,0,.005,0,.008,0,.006,0,.01l.153,82.08a.117.117,0,0,1-.066.105l-57.588,28a.117.117,0,0,1-.051.012h-.018l-.079-.012,0,0a.116.116,0,0,1-.051.012h-.018l-74.128-11.674a.118.118,0,0,1-.1-.1A.116.116,0,0,1,965.222,1020.357Zm74.2,11.64.016-.007-.068-36.812-16.489-2.6L965.7,1020.387Zm-16.677-121.43L965.66,938.325l57.083,8.99Zm.234,81.793,16.389,2.581-.083-44.784-16.306-2.568Zm73.624,11.832-57-8.976.068,36.661Zm.27-81.95-57.354,27.889.083,44.848,57.405,9.04c.006,0,.011.007.017.009Zm-74.129,70.146V947.552l-57.353-9.032.152,81.682Zm.234-81.87v36.835l16.405,2.583,1.475-.717,55.744-27.107Z" transform="translate(-174.156 -770.93)" fill="none" stroke="url(#linear-gradient-coub-3)"/>
      <path class="cube-hero" id="Path_191-4" data-name="Path 191" d="M965.222,1020.357l.086-.042-.152-81.933c0-.006.006-.009.007-.015a.106.106,0,0,1,.027-.06s0-.01.007-.014.008,0,.012,0,.007-.01.014-.013l57.587-28a.11.11,0,0,1,.036-.005c.006,0,.009-.007.015-.007s0,0,.007,0,.007,0,.011,0l74.128,11.674c.005,0,.009.005.014.007a.1.1,0,0,1,.03.009c.005,0,.008.008.012.012a.109.109,0,0,1,.015.016.111.111,0,0,1,.021.041s.006.008.007.013,0,.005,0,.008,0,.006,0,.01l.153,82.08a.117.117,0,0,1-.066.105l-57.588,28a.117.117,0,0,1-.051.012h-.018l-.079-.012,0,0a.116.116,0,0,1-.051.012h-.018l-74.128-11.674a.118.118,0,0,1-.1-.1A.116.116,0,0,1,965.222,1020.357Zm74.2,11.64.016-.007-.068-36.812-16.489-2.6L965.7,1020.387Zm-16.677-121.43L965.66,938.325l57.083,8.99Zm.234,81.793,16.389,2.581-.083-44.784-16.306-2.568Zm73.624,11.832-57-8.976.068,36.661Zm.27-81.95-57.354,27.889.083,44.848,57.405,9.04c.006,0,.011.007.017.009Zm-74.129,70.146V947.552l-57.353-9.032.152,81.682Zm.234-81.87v36.835l16.405,2.583,1.475-.717,55.744-27.107Z" transform="translate(-174.156 -668.705)" fill="none" stroke="url(#linear-gradient-coub-3)"/>
      <path class="cube-hero" id="Path_192-4" data-name="Path 192" d="M965.222,1020.357l.086-.042-.152-81.933c0-.006.006-.009.007-.015a.106.106,0,0,1,.027-.06s0-.01.007-.014.008,0,.012,0,.007-.01.014-.013l57.587-28a.11.11,0,0,1,.036-.005c.006,0,.009-.007.015-.007s0,0,.007,0,.007,0,.011,0l74.128,11.674c.005,0,.009.005.014.007a.1.1,0,0,1,.03.009c.005,0,.008.008.012.012a.109.109,0,0,1,.015.016.111.111,0,0,1,.021.041s.006.008.007.013,0,.005,0,.008,0,.006,0,.01l.153,82.08a.117.117,0,0,1-.066.105l-57.588,28a.117.117,0,0,1-.051.012h-.018l-.079-.012,0,0a.116.116,0,0,1-.051.012h-.018l-74.128-11.674a.118.118,0,0,1-.1-.1A.116.116,0,0,1,965.222,1020.357Zm74.2,11.64.016-.007-.068-36.812-16.489-2.6L965.7,1020.387Zm-16.677-121.43L965.66,938.325l57.083,8.99Zm.234,81.793,16.389,2.581-.083-44.784-16.306-2.568Zm73.624,11.832-57-8.976.068,36.661Zm.27-81.95-57.354,27.889.083,44.848,57.405,9.04c.006,0,.011.007.017.009Zm-74.129,70.146V947.552l-57.353-9.032.152,81.682Zm.234-81.87v36.835l16.405,2.583,1.475-.717,55.744-27.107Z" transform="translate(-78.618 -751.823)" fill="none" stroke="url(#linear-gradient-coub-3)"/>
      <path class="cube-hero" id="Path_193-4" data-name="Path 193" d="M965.222,1020.357l.086-.042-.152-81.933c0-.006.006-.009.007-.015a.106.106,0,0,1,.027-.06s0-.01.007-.014.008,0,.012,0,.007-.01.014-.013l57.587-28a.11.11,0,0,1,.036-.005c.006,0,.009-.007.015-.007s0,0,.007,0,.007,0,.011,0l74.128,11.674c.005,0,.009.005.014.007a.1.1,0,0,1,.03.009c.005,0,.008.008.012.012a.109.109,0,0,1,.015.016.111.111,0,0,1,.021.041s.006.008.007.013,0,.005,0,.008,0,.006,0,.01l.153,82.08a.117.117,0,0,1-.066.105l-57.588,28a.117.117,0,0,1-.051.012h-.018l-.079-.012,0,0a.116.116,0,0,1-.051.012h-.018l-74.128-11.674a.118.118,0,0,1-.1-.1A.116.116,0,0,1,965.222,1020.357Zm74.2,11.64.016-.007-.068-36.812-16.489-2.6L965.7,1020.387Zm-16.677-121.43L965.66,938.325l57.083,8.99Zm.234,81.793,16.389,2.581-.083-44.784-16.306-2.568Zm73.624,11.832-57-8.976.068,36.661Zm.27-81.95-57.354,27.889.083,44.848,57.405,9.04c.006,0,.011.007.017.009Zm-74.129,70.146V947.552l-57.353-9.032.152,81.682Zm.234-81.87v36.835l16.405,2.583,1.475-.717,55.744-27.107Z" transform="translate(-78.618 -649.597)" fill="none" stroke="url(#linear-gradient-coub-3)"/>
    </g>
  </g>
  <style>
    .cube-hero {
        stroke-dasharray: 10000;
        stroke-dashoffset: 10000;
        animation-duration: 85s;
        animation-name: dash;
        animation-timing-function: linear;
        animation-fill-mode: forwards;
    }
    @keyframes dash {
        to {
            stroke-dashoffset: 0;
        }
    }
  </style>
</svg>